<?xml version="1.0" encoding="UTF-8"?>
<!-- Generated by Pixelmator Pro 2.4.5 -->
<svg width="1253" height="1440" viewBox="0 0 1253 1440" xmlns="http://www.w3.org/2000/svg" xmlns:xlink="http://www.w3.org/1999/xlink">
    <path id="Hexagon" fill="#a52a22" stroke="#752e2b" stroke-width="50" stroke-linecap="round" stroke-linejoin="round" d="M 25 372.5 L 25 1067.5 L 626.5 1415 L 1228 1067.5 L 1228 372.5 L 626.5 25 L 25 372.5 Z"/>
    <text id="Homepage" transform="matrix(0.866025 -0.5 0.5 0.866025 -496.340504 586.63202)" xml:space="preserve" x="582" y="1233" font-family="Arial" font-size="48" fill="#ffffff">davidchall.github.io/jinjar</text>
    <text id="Package" xml:space="preserve" x="286" y="989" font-family="Trebuchet MS" font-size="288" fill="#ffffff">jinjar</text>
    <g id="Shrine">
        <radialGradient id="radialGradient1" cx="646.010852" cy="495.999894" r="237.010853" fx="646.010852" fy="495.999894" gradientUnits="userSpaceOnUse">
            <stop offset="1e-05" stop-color="#464646" stop-opacity="1"/>
            <stop offset="1" stop-color="#2f2f2f" stop-opacity="1"/>
        </radialGradient>
        <path id="path4735" fill="url(#radialGradient1)" fill-rule="evenodd" stroke="#323232" stroke-width="5.30365" stroke-linecap="round" stroke-linejoin="round" d="M 880.214539 272 C 880.214539 272 788.754272 315.715576 714.295715 325.365234 C 639.837219 335.014893 497.841034 344.668823 469.653107 337.857178 C 441.465271 331.045654 421.230927 323.091553 421.230927 323.091553 L 427.095673 342.966309 L 409 358.855469 L 412.208099 364.526489 L 419.651886 365.088135 L 442.509613 367.923584 L 445.717743 378.141846 L 458.474915 379.292114 L 464.866028 400.852295 C 464.866028 400.852295 491.976929 403.125854 499.95462 403.125854 C 507.932312 403.125854 523.890076 402.002441 523.890076 402.002441 L 524.416382 410.508789 L 530.281128 411.632202 L 530.281128 421.288757 L 517.498901 432.657288 L 520.707031 433.219055 L 520.707031 437.177979 C 520.707031 437.177979 491.980621 439.469299 480.279938 437.766479 C 468.579315 436.063538 466.445068 436.054504 466.445068 436.054504 L 465.392365 437.177979 L 464.866028 442.287109 L 467.522766 442.287109 L 468.575409 464.435669 L 527.624512 462.161987 L 523.36377 538.799194 L 522.837402 548.429016 L 472.836151 545.593567 L 472.309845 525.156982 L 483.462982 525.156982 L 484.540741 517.212341 L 494.641174 514.93866 L 496.24527 512.69165 L 458.474915 503.596863 L 429.75238 512.103149 L 434.539459 516.088867 L 439.326599 516.088867 L 439.852905 522.909973 L 449.9534 523.471741 L 449.9534 543.346558 L 438.800262 546.182068 L 440.930603 550.702698 L 443.587341 552.414612 L 443.587341 567.742126 L 450.504822 567.742126 L 450.504822 638.681702 L 439.326599 640.393677 L 440.930603 660.8302 L 447.823029 661.980408 L 446.770355 708.524536 L 477.096893 709.086182 L 470.705811 663.103943 L 516.446289 661.980408 L 513.263245 686.937744 L 509.002502 704.538818 L 555.269287 705.100586 L 555.795593 659.706726 L 587.701111 656.871338 L 586.122131 685.81427 L 585.044434 702.826904 L 612.187988 702.826904 L 611.110229 656.282837 L 614.844666 656.871338 L 615.897339 634.722778 L 611.636597 634.722778 L 610.057556 625.62793 L 607.400879 599.520447 L 608.453552 569.454041 L 614.293213 569.454041 L 614.293213 551.291199 L 606.849487 551.852905 L 607.927185 530.426575 L 616.574036 529.570618 L 616.975037 522.615784 L 621.887451 521.893494 L 626.925171 518.068298 L 596.623657 511.835754 L 566.572815 518.496277 L 569.505188 523.311279 L 572.688232 523.043701 L 576.397583 522.909973 L 577.074341 531.683838 L 585.445435 531.282593 L 585.595825 550.274719 L 549.55481 549.445496 L 550.757874 529.142639 L 551.935852 510.685486 L 551.935852 486.423706 L 553.013611 460.877991 L 625.195801 457.186523 L 711.087646 452.237976 L 711.889648 468.555115 L 708.83197 507.716309 L 707.503601 544.175781 L 675.873718 543.614075 L 675.723328 518.068298 L 687.427856 517.640381 L 687.954224 510.417969 L 692.741333 509.69574 L 692.490662 508.278076 L 697.277832 508.010559 L 699.934448 504.452881 L 664.169189 496.080261 L 628.529236 503.730652 L 631.060608 508.144287 L 635.045654 507.850037 L 635.045654 509.856262 L 639.958069 509.856262 L 639.958069 517.93457 L 650.459595 518.068298 L 650.334229 540.484375 L 639.707458 540.484375 L 639.557068 545.593567 L 643.291504 546.021484 L 642.890442 565.468384 L 650.735291 565.896423 L 649.807922 642.961609 L 639.431763 645.074829 L 639.557068 648.766235 L 643.166199 648.766235 L 643.166199 668.507324 L 649.131226 668.507324 L 647.552246 695.470825 L 645.54718 719.010315 L 683.317505 720 L 682.114502 699.563416 L 679.332458 682.550842 L 678.781128 667.785095 L 710.837036 667.223328 L 709.909668 690.067383 L 709.759277 714.195374 L 727.85498 715.613098 L 752.442017 714.623413 L 760.16156 712.34967 L 755.900757 699.429688 L 754.848083 679.126831 L 752.843018 664.655396 L 783.420166 663.531921 L 782.091858 681.266846 L 781.966553 709.086182 L 794.197388 710.209656 L 806.302979 709.942139 L 812.1427 708.096497 L 808.684021 681.694824 L 807.505981 661.819946 L 812.694092 661.25824 L 812.819458 643.523376 L 814.273132 643.229126 L 814.0224 639.403931 L 808.032349 639.403931 L 806.829346 626.350159 L 806.302979 569.721558 L 810.814392 569.58783 L 810.814392 550.996887 L 812.694092 551.291199 L 812.694092 547.599792 L 806.027283 547.011292 L 806.177673 525.451172 L 817.330811 524.461487 L 816.679199 517.212341 L 821.591675 516.784363 L 821.315857 515.366577 L 827.832336 512.103149 L 794.723694 505.442566 L 761.088867 512.263672 L 763.219238 516.222656 L 768.407288 515.794678 L 768.682983 517.506653 L 773.069092 517.506653 L 773.319702 526.012939 L 784.22229 525.87915 L 785.149597 546.743774 L 746.602234 546.449585 L 742.09082 515.099182 L 738.481812 498.487732 L 735.574402 468.688843 L 737.303772 451.248169 L 814.147766 445.416809 L 814.398376 419.443054 L 818.258179 418.453369 L 818.007629 414.494385 L 815.075195 412.782471 C 815.074585 412.782471 773.056702 419.013672 759.760498 420.432861 C 756.014587 420.83252 756.298279 420.806335 753.24408 421.128296 L 752.843018 416.313416 L 736.952942 407.994263 L 737.153442 398.311035 L 742.617249 398.150513 L 743.01825 384.829224 C 743.01825 384.829224 775.581482 382.692017 787.680969 379.853882 C 799.780518 377.015625 816.92981 374.182983 816.92981 374.182983 L 825.050293 352.194824 L 841.140991 347.513672 L 842.469299 343.822266 L 878.88623 333.737793 L 883.021729 330.340576 L 869.186707 300.11377 L 870.515198 293.292603 L 877.557983 289.601196 L 882.620667 274.140015 L 880.214539 272 Z M 705.247864 387.236694 L 705.047363 398.230713 L 713.293213 398.578491 L 712.766907 409.010742 L 696.601074 419.603577 L 695.598572 422.653015 L 702.11499 422.706482 L 702.06488 425.274475 L 652.665161 427.681885 L 652.990967 420.379272 L 655.246643 416.741333 L 655.397034 414.414185 L 655.447205 409.385254 L 656.850708 406.041504 L 657.377014 403.339966 L 657.377014 401.41394 L 659.507385 392.907593 L 705.247864 387.236694 Z M 601.937073 396.598999 L 600.73407 403.981934 L 604.59375 408.529297 L 604.34314 416.473877 L 607.927185 422.010986 L 606.999817 428.537842 L 609.656555 432.363037 L 559.254333 434.342529 L 559.129028 432.657288 L 564.968811 431.935059 L 565.244446 429.795166 L 552.487244 422.866943 L 551.810547 411.792725 L 557.925964 411.498413 L 558.452332 399.568237 L 601.937073 396.598999 Z M 676.525391 566.886108 L 707.102539 568.86554 L 706.049927 610.032959 L 710.034912 643.790833 L 677.603088 642.667297 L 676.525391 566.886108 Z M 471.758453 568.598083 L 520.707031 571.139282 L 516.446289 599.520447 L 516.446289 623.380981 L 519.905029 636.702209 L 472.03418 638.975891 L 471.758453 568.598083 Z M 785.024231 568.86554 L 785.024231 639.270142 L 753.920715 641.543884 L 752.843018 604.362061 L 749.384277 569.721558 L 785.024231 568.86554 Z M 549.429565 570.443787 L 585.595825 570.577515 L 585.971741 635.846191 L 552.211548 636.434692 L 550.482178 615.275879 L 550.356873 594.277527 L 549.429565 570.443787 Z"/>
    </g>
</svg>
